<svg width="54" height="54" viewBox="0 0 54 54" fill="none" xmlns="http://www.w3.org/2000/svg">
<rect width="54" height="54" fill="#2836B0"/>
<path fill-rule="evenodd" clip-rule="evenodd" d="M10.4355 19.0814V16.182H27.1883V19.1006L10.4355 19.0814ZM10.4355 37.7665H21.9906C23.7517 37.7665 25.2336 37.1437 26.4363 35.898C27.6605 34.6309 28.2726 33.106 28.2726 31.3234C28.2726 29.5193 27.6283 27.9837 26.3397 26.7166C25.0725 25.4279 23.5477 24.7836 21.765 24.7836H10.4355V27.683H21.0885C22.0765 27.683 22.8926 28.0481 23.5369 28.7784C24.2027 29.4871 24.5356 30.3355 24.5356 31.3234C24.5356 32.2899 24.2027 33.1275 23.5369 33.8362C22.8926 34.5235 22.0765 34.8671 21.0885 34.8671H10.4355V37.7665ZM43.7967 16.1827H39.5564L28.544 26.6752L40.1854 37.767H44.4258L32.7843 26.6752L43.7967 16.1827Z" fill="white"/>
</svg>
