<svg width="35" height="35" viewBox="0 0 35 22" fill="currentColor" xmlns="http://www.w3.org/2000/svg">
<path d="M0.435547 3.08142V0.182007H17.1883V3.10064L0.435547 3.08142ZM0.435547 21.7665H11.9906C13.7517 21.7665 15.2336 21.1437 16.4363 19.898C17.6605 18.6309 18.2726 17.106 18.2726 15.3234C18.2726 13.5193 17.6283 11.9837 16.3397 10.7166C15.0725 9.42792 13.5477 8.78361 11.765 8.78361H0.435547V11.683H11.0885C12.0765 11.683 12.8926 12.0481 13.5369 12.7784C14.2027 13.4871 14.5356 14.3355 14.5356 15.3234C14.5356 16.2899 14.2027 17.1275 13.5369 17.8362C12.8926 18.5235 12.0765 18.8671 11.0885 18.8671H0.435547V21.7665ZM33.7967 0.182718H29.5564L18.544 10.6752L30.1854 21.767H34.4258L22.7843 10.6752L33.7967 0.182718Z" />
</svg>
